<mxfile host="app.diagrams.net" modified="2022-05-18T08:38:06.713Z" agent="5.0 (Macintosh)" etag="8OBDGKq_fW7H8LFJ52wa" version="18.0.7" type="github">
  <diagram id="eI6kGdQ1pyTKyE0h_PcT" name="Page-1">
    <mxGraphModel dx="1469" dy="797" grid="1" gridSize="10" guides="1" tooltips="1" connect="1" arrows="1" fold="1" page="1" pageScale="1" pageWidth="850" pageHeight="1100" math="0" shadow="0">
      <root>
        <mxCell id="0" />
        <mxCell id="1" parent="0" />
        <mxCell id="tmjAw3uo2XOw9Yw6tD3o-7" value="Amazon Elasticsearch Service" style="sketch=0;outlineConnect=0;fontColor=#232F3E;gradientColor=none;strokeColor=#ffffff;fillColor=#232F3E;dashed=0;verticalLabelPosition=middle;verticalAlign=bottom;align=center;html=1;whiteSpace=wrap;fontSize=10;fontStyle=1;spacing=3;shape=mxgraph.aws4.productIcon;prIcon=mxgraph.aws4.elasticsearch_service;" vertex="1" parent="1">
          <mxGeometry x="570" y="390" width="80" height="120" as="geometry" />
        </mxCell>
        <mxCell id="tmjAw3uo2XOw9Yw6tD3o-16" style="edgeStyle=orthogonalEdgeStyle;rounded=0;orthogonalLoop=1;jettySize=auto;html=1;" edge="1" parent="1" source="tmjAw3uo2XOw9Yw6tD3o-8" target="tmjAw3uo2XOw9Yw6tD3o-9">
          <mxGeometry relative="1" as="geometry">
            <Array as="points">
              <mxPoint x="180" y="430" />
              <mxPoint x="180" y="370" />
            </Array>
          </mxGeometry>
        </mxCell>
        <mxCell id="tmjAw3uo2XOw9Yw6tD3o-22" value="Real-time" style="edgeLabel;html=1;align=center;verticalAlign=middle;resizable=0;points=[];" vertex="1" connectable="0" parent="tmjAw3uo2XOw9Yw6tD3o-16">
          <mxGeometry x="0.7143" y="2" relative="1" as="geometry">
            <mxPoint x="-17" as="offset" />
          </mxGeometry>
        </mxCell>
        <mxCell id="tmjAw3uo2XOw9Yw6tD3o-17" style="edgeStyle=orthogonalEdgeStyle;rounded=0;orthogonalLoop=1;jettySize=auto;html=1;" edge="1" parent="1" source="tmjAw3uo2XOw9Yw6tD3o-8" target="tmjAw3uo2XOw9Yw6tD3o-14">
          <mxGeometry relative="1" as="geometry">
            <Array as="points">
              <mxPoint x="180" y="430" />
              <mxPoint x="180" y="490" />
            </Array>
          </mxGeometry>
        </mxCell>
        <mxCell id="tmjAw3uo2XOw9Yw6tD3o-23" value="Backfill" style="edgeLabel;html=1;align=center;verticalAlign=middle;resizable=0;points=[];" vertex="1" connectable="0" parent="tmjAw3uo2XOw9Yw6tD3o-17">
          <mxGeometry x="0.5143" relative="1" as="geometry">
            <mxPoint as="offset" />
          </mxGeometry>
        </mxCell>
        <mxCell id="tmjAw3uo2XOw9Yw6tD3o-8" value="FDP Real-time Storage &lt;br&gt;" style="sketch=0;outlineConnect=0;fontColor=#232F3E;gradientColor=none;strokeColor=#ffffff;fillColor=#232F3E;dashed=0;verticalLabelPosition=middle;verticalAlign=bottom;align=center;html=1;whiteSpace=wrap;fontSize=10;fontStyle=1;spacing=3;shape=mxgraph.aws4.productIcon;prIcon=mxgraph.aws4.s3;" vertex="1" parent="1">
          <mxGeometry x="80" y="390" width="80" height="120" as="geometry" />
        </mxCell>
        <mxCell id="tmjAw3uo2XOw9Yw6tD3o-19" value="" style="edgeStyle=orthogonalEdgeStyle;rounded=0;orthogonalLoop=1;jettySize=auto;html=1;" edge="1" parent="1" source="tmjAw3uo2XOw9Yw6tD3o-9" target="tmjAw3uo2XOw9Yw6tD3o-10">
          <mxGeometry relative="1" as="geometry">
            <Array as="points">
              <mxPoint x="350" y="370" />
              <mxPoint x="350" y="370" />
            </Array>
          </mxGeometry>
        </mxCell>
        <mxCell id="tmjAw3uo2XOw9Yw6tD3o-9" value="SQS" style="sketch=0;outlineConnect=0;fontColor=#232F3E;gradientColor=none;strokeColor=#ffffff;fillColor=#232F3E;dashed=0;verticalLabelPosition=middle;verticalAlign=bottom;align=center;html=1;whiteSpace=wrap;fontSize=10;fontStyle=1;spacing=3;shape=mxgraph.aws4.productIcon;prIcon=mxgraph.aws4.sqs;" vertex="1" parent="1">
          <mxGeometry x="260" y="330" width="80" height="100" as="geometry" />
        </mxCell>
        <mxCell id="tmjAw3uo2XOw9Yw6tD3o-20" style="edgeStyle=orthogonalEdgeStyle;rounded=0;orthogonalLoop=1;jettySize=auto;html=1;" edge="1" parent="1" source="tmjAw3uo2XOw9Yw6tD3o-10" target="tmjAw3uo2XOw9Yw6tD3o-7">
          <mxGeometry relative="1" as="geometry">
            <Array as="points">
              <mxPoint x="503" y="380" />
              <mxPoint x="503" y="430" />
            </Array>
          </mxGeometry>
        </mxCell>
        <mxCell id="tmjAw3uo2XOw9Yw6tD3o-10" value="Lambda" style="sketch=0;outlineConnect=0;fontColor=#232F3E;gradientColor=none;strokeColor=#ffffff;fillColor=#232F3E;dashed=0;verticalLabelPosition=middle;verticalAlign=bottom;align=center;html=1;whiteSpace=wrap;fontSize=10;fontStyle=1;spacing=3;shape=mxgraph.aws4.productIcon;prIcon=mxgraph.aws4.lambda;" vertex="1" parent="1">
          <mxGeometry x="385" y="330" width="80" height="100" as="geometry" />
        </mxCell>
        <mxCell id="tmjAw3uo2XOw9Yw6tD3o-25" style="edgeStyle=orthogonalEdgeStyle;rounded=0;orthogonalLoop=1;jettySize=auto;html=1;" edge="1" parent="1" source="tmjAw3uo2XOw9Yw6tD3o-12" target="tmjAw3uo2XOw9Yw6tD3o-24">
          <mxGeometry relative="1" as="geometry">
            <Array as="points">
              <mxPoint x="190" y="625" />
              <mxPoint x="190" y="625" />
            </Array>
          </mxGeometry>
        </mxCell>
        <mxCell id="tmjAw3uo2XOw9Yw6tD3o-12" value="FDP Historical Storage " style="sketch=0;outlineConnect=0;fontColor=#232F3E;gradientColor=none;strokeColor=#ffffff;fillColor=#232F3E;dashed=0;verticalLabelPosition=middle;verticalAlign=bottom;align=center;html=1;whiteSpace=wrap;fontSize=10;fontStyle=1;spacing=3;shape=mxgraph.aws4.productIcon;prIcon=mxgraph.aws4.s3;" vertex="1" parent="1">
          <mxGeometry x="80" y="580" width="80" height="120" as="geometry" />
        </mxCell>
        <mxCell id="tmjAw3uo2XOw9Yw6tD3o-18" style="edgeStyle=orthogonalEdgeStyle;rounded=0;orthogonalLoop=1;jettySize=auto;html=1;" edge="1" parent="1" source="tmjAw3uo2XOw9Yw6tD3o-14" target="tmjAw3uo2XOw9Yw6tD3o-15">
          <mxGeometry relative="1" as="geometry">
            <Array as="points">
              <mxPoint x="360" y="490" />
              <mxPoint x="360" y="490" />
            </Array>
          </mxGeometry>
        </mxCell>
        <mxCell id="tmjAw3uo2XOw9Yw6tD3o-14" value="SQS" style="sketch=0;outlineConnect=0;fontColor=#232F3E;gradientColor=none;strokeColor=#ffffff;fillColor=#232F3E;dashed=0;verticalLabelPosition=middle;verticalAlign=bottom;align=center;html=1;whiteSpace=wrap;fontSize=10;fontStyle=1;spacing=3;shape=mxgraph.aws4.productIcon;prIcon=mxgraph.aws4.sqs;" vertex="1" parent="1">
          <mxGeometry x="260" y="450" width="80" height="100" as="geometry" />
        </mxCell>
        <mxCell id="tmjAw3uo2XOw9Yw6tD3o-21" style="edgeStyle=orthogonalEdgeStyle;rounded=0;orthogonalLoop=1;jettySize=auto;html=1;" edge="1" parent="1" source="tmjAw3uo2XOw9Yw6tD3o-15" target="tmjAw3uo2XOw9Yw6tD3o-7">
          <mxGeometry relative="1" as="geometry">
            <Array as="points">
              <mxPoint x="503" y="500" />
              <mxPoint x="503" y="430" />
            </Array>
          </mxGeometry>
        </mxCell>
        <mxCell id="tmjAw3uo2XOw9Yw6tD3o-15" value="Lambda" style="sketch=0;outlineConnect=0;fontColor=#232F3E;gradientColor=none;strokeColor=#ffffff;fillColor=#232F3E;dashed=0;verticalLabelPosition=middle;verticalAlign=bottom;align=center;html=1;whiteSpace=wrap;fontSize=10;fontStyle=1;spacing=3;shape=mxgraph.aws4.productIcon;prIcon=mxgraph.aws4.lambda;" vertex="1" parent="1">
          <mxGeometry x="385" y="450" width="80" height="100" as="geometry" />
        </mxCell>
        <mxCell id="tmjAw3uo2XOw9Yw6tD3o-26" style="edgeStyle=orthogonalEdgeStyle;rounded=0;orthogonalLoop=1;jettySize=auto;html=1;" edge="1" parent="1" source="tmjAw3uo2XOw9Yw6tD3o-24" target="tmjAw3uo2XOw9Yw6tD3o-7">
          <mxGeometry relative="1" as="geometry" />
        </mxCell>
        <mxCell id="tmjAw3uo2XOw9Yw6tD3o-24" value="Cradle" style="shape=image;imageAspect=0;aspect=fixed;verticalLabelPosition=bottom;verticalAlign=top;image=data:image/jpeg,/9j/4AAQSkZJRgABAQEAYABgAAD/4QBaRXhpZgAATU0AKgAAAAgABAExAAIAAAAUAAAAPlEQAAEAAAABAQAAAFERAAQAAAABAAALElESAAQAAAABAAALEgAAAABBZG9iZSBGaXJld29ya3MgQ1M2AP/bAEMAAgEBAgEBAgICAgICAgIDBQMDAwMDBgQEAwUHBgcHBwYHBwgJCwkICAoIBwcKDQoKCwwMDAwHCQ4PDQwOCwwMDP/bAEMBAgICAwMDBgMDBgwIBwgMDAwMDAwMDAwMDAwMDAwMDAwMDAwMDAwMDAwMDAwMDAwMDAwMDAwMDAwMDAwMDAwMDP/AABEIAZABkAMBIgACEQEDEQH/xAAfAAABBQEBAQEBAQAAAAAAAAAAAQIDBAUGBwgJCgv/xAC1EAACAQMDAgQDBQUEBAAAAX0BAgMABBEFEiExQQYTUWEHInEUMoGRoQgjQrHBFVLR8CQzYnKCCQoWFxgZGiUmJygpKjQ1Njc4OTpDREVGR0hJSlNUVVZXWFlaY2RlZmdoaWpzdHV2d3h5eoOEhYaHiImKkpOUlZaXmJmaoqOkpaanqKmqsrO0tba3uLm6wsPExcbHyMnK0tPU1dbX2Nna4eLj5OXm5+jp6vHy8/T19vf4+fr/xAAfAQADAQEBAQEBAQEBAAAAAAAAAQIDBAUGBwgJCgv/xAC1EQACAQIEBAMEBwUEBAABAncAAQIDEQQFITEGEkFRB2FxEyIygQgUQpGhscEJIzNS8BVictEKFiQ04SXxFxgZGiYnKCkqNTY3ODk6Q0RFRkdISUpTVFVWV1hZWmNkZWZnaGlqc3R1dnd4eXqCg4SFhoeIiYqSk5SVlpeYmZqio6Slpqeoqaqys7S1tre4ubrCw8TFxsfIycrS09TV1tfY2dri4+Tl5ufo6ery8/T19vf4+fr/2gAMAwEAAhEDEQA/AP38ooooAKKKKACiiigAooooAKKKKACiiigAooooAKKKKACiiigAooooAKKKKACiiigAooooAKKKKACiiigAooooAKKKKACiiigAooooAKKKKACiiigAooooAKKKKACiiigAooooAKKKKACiiigAooooAKKKKACiiigAooooAKKKKACiiigAooooAKKKKACiiigAooooAKKKKACiiigAooooAKKKKACiiigAooooAKKK+Qf+ChX/AAWt+DP/AAT3Nxo+q6jL4u8eRplPDWiusk8DEZX7TKTst1PHDZkwwIjYVUYSk7RRMpKKvI+vqK/nT/aT/wCDnX9ob4vahcReCz4e+GOjszCKPT7JL++KHoJJ7hWUsP70ccdfLeuf8FRv2kfEF/Jcz/Hf4tRySMWItvFV7axj6JHIqj6AAV3Ry+o92kcssbBbH9aFFfyc+EP+Cr37S3gjVY7yz+OnxQnmiOQuoeILjUIj9Y52dD9CDX19+y7/AMHTPxo+Gd/b2vxM0Tw/8StIBxNcRQrpOp49VeFfIOOuDCCf7w61MsvqLbUI42D30P6CKK+df2EP+CpXwf8A+Ch2gtJ4D18w6/bRebe+HdTVbbVLNehby8kSICR88TOoyASCcV9FVxyi4u0jrjJNXQUUUVIwooooAKKKKACiiigAooooAKKKKACiiigAooooAKKKKACiiigAooooAKKKKACiiigAooooAKKKKACiiigAooooAKKKKACiiigAooooAKKK+Qf+C1v/AAUM/wCHe37G2oapo9xHH488XO2jeGkOC0EzKTLd7T1WBPmHBHmNECMNVQi5SUUTKSiuZnyX/wAF2f8AguzdfA/U9U+C/wAF9UEXiyINbeJPEls4LaMSMNaWzDpcDo8g5iPyj5wSn4X6jqNxq9/NdXU811dXLtLLNK5eSV2OSzMeSSeST1o1HUbjV9Qnu7qaW5urqRpZppWLvK7HLMxPJJJJJPWvvD/gi9/wRd1T/goz4ok8WeLJL3QvhLodz5Nzcw/Jc65OuCba3JGFUAjfLg7chRliSvvRjChTPIlKdaZ8g/Af9mf4g/tP+K/7E+Hvg3xD4w1JQDLFplk8626k4DyuBtjXP8TkD3r7U+F//BsZ+1D8QLbzNUsfA/gnIyE1rXhIx/8AANLj9a/oM+BnwA8F/sz/AA6s/CfgLw3pXhXw9YD91Z2MOxWbABd25aSQ4GXcszYySTXYVwVMwm37iOuGBil7zP5r/i7/AMG2H7U3wwhkm0/w34b8bQQqXd9B1uItgeiXPkyMfZVJPpXxT8UfhF4q+CHi+48P+MvDeueFdctcGWw1WyktLhAeh2SAHB7Hoe1f2TV5X+1v+xX8Nv24fhnP4W+I/hmy1yzZHFpd7RHfaXI2P3ttOPmjcEA8Ha2MMGXKl08wlf30FTAq3uM/kj8A/EDXPhX4y07xF4b1bUND1zSZluLK/sZ2huLaRejK6kEGv6Hf+CIf/Ba21/b40CP4f/ECaz074t6Rbl0kULFD4mgQfNNGowFnUcvGvBALqNu5U/HT/gq1/wAEsvFX/BMr40R6bdTS654H8QM8vh3XfL2/aUXG6CYDhJ48jIHDAhhwSF+dfhR8U9e+CHxK0Pxd4X1GfSfEHh28jv7C7iPzQyxsGU46EcYKnIIJBBBIrtq0oV4XXyZy06kqUrP5n9lFFeMf8E/P2xtH/bx/ZM8JfErSVit5tYtvK1SyR9x02/i+S4gPJOA4LKWwWjdGwN1ez14UotOzPXjJNXQUUUVIwooooAKKKKACiiigAooooAKKKKACiiigAooooAKR3WMfMwX6mqXifxLY+DPDl/q+qXUVnpumW73V1PK21IY0UszE+gAJr+Z//gpT/wAFm/ib+1n8ftcm8L+LNc8M+BLG6kg0ax0+6e28yFTtWWQqQWZsbuemcV0YfDyquyMa1ZU1qf01C7iP/LSP/voUfao/+ekf/fQr+QT/AIbH+LH/AEUfxp/4N5//AIqg/tjfFg/81H8af+Def/4qur+zZfzGH1xdj+vv7XF/z0j/AO+hR9ri/wCekf8A30K/kE/4bG+LGf8Ako3jT/wbz/8AxVJ/w2L8V/8Aoo3jT/wbz/8AxVH9my/mD64ux/X59ri/56R/99Cj7XF/z0j/AO+hX8gf/DYvxX/6KN40/wDBvP8A/FUo/bG+LAJ/4uP4056/8Tef/wCKo/s2XcPri7H9ff2qP/npH/30KPtUf/PSP/voV/IKf2x/iwf+aj+NOf8AqLz/APxVH/DY/wAWP+ij+NP/AAbz/wDxVH9my7h9cXY/r6+1xf8APSP/AL6FH2qP/npH/wB9Cv5Bf+Gx/ix/0Ufxp/4N5/8A4qm/8Ni/FfH/ACUbxp/4N5//AIqj+zZfzB9cXY/r8+1xf89I/wDvoUfa4j/y0j/76FfyBn9sX4rn/mo3jT1/5C8//wAVR/w2L8Vyf+SjeNP/AAbz/wDxVH9my7h9cXY/r8+1xf8APSP/AL6FH2uI/wDLSP8A76FfyB/8NifFY/8ANRvGn/g3n/8AiqD+2H8Vj/zUbxp/4N5//iqP7Nl/MH1xdj+vz7XF/wA9I/8AvoUfa4v+ekf/AH0K/kD/AOGw/itn/ko3jT/wbz//ABVH/DYXxWP/ADUbxp/4N5//AIqj+zZfzB9cXY/r8+2Q/wDPWP8A76FH2uL/AJ6R/wDfQr+QI/tg/FY/81G8af8Ag3n/APiqT/hsD4qgf8lF8af+Def/AOKo/s1/zB9cXY/sCVtwyOR6iivw1/4NzP8Agp38SPGX7T8Xwh8aeJNR8TaDr1ncXFjLqM/myWE0UZkwrtztfbjGepGOtfuVXHWounLlZ006inG6Cv50P+DnH9pWf4w/8FDG8Gw3DNo/ww0qDTkiD5jN3cItzPIB2YrJDGf+uAr+i+v5Lf8AgqBrE2uf8FH/AI8TTyNJJH4+1q3BY9Fivpo1H4KgH4V1ZfG9RvsjnxsrQscF+zN8B9V/ag/aD8G/D3RTs1Lxhq1vpkUpQstsJHAeZgOdsabnb2U1/W/8Afgb4d/Zo+C/hvwF4TslsPD3hWxjsbOIAbmC/ekcgDdI7FndsZZ3Ynk1/Pr/AMGxPwxg8ff8FQLTVJgC3gvwxqWtRA/328qy/leE1/R1TzCo3JQJwULRcgooorzjuCiiigDxH/gol+xjo/7e37JHiv4dapHbreX9ubrRLyRR/wAS3Uo1Jt5wcEgbjsfHJjkkXI3V/JfruiXfhnW7zTb+3ktb7T53triGQbXhkRirKR2IIIP0r+z6v5U/+CzXw3h+FX/BUb41aXCoWO48RSaqAOgN7Gl4QPxnNepl1R3cPmefjo6KR92/8GmX7Slxp/xC+JXwju7iRrPUrGPxTpsTN8kU0Lpb3G0f3nSWA/SCv2/r+Zn/AINzNcuNJ/4K5fDa3hkZI9TtdXtpwDxIg0u6lAP/AAKNT9QK/pmrDHxtVv3NsHK9MKKKK4jqCiiigAooooAKKKKACiiigAooooAKKKKACiiuD/ad/aG0H9lP4DeJviB4luFt9J8N2T3TgnDTuBhIl9WdiFA9TTSbdkG2rPzd/wCDmz/gop/wqT4R2vwQ8MX2zxB4ziFzrzxP89pp4PyxHHQysOn91T61+CqgscDkngAd69C/ap/aO179rX9oDxP8QfEk7Tap4kvXuCpOVt484jiX0VFAUfSvp3/ghF/wTxf9ub9r6zvtZs2l8CeA3j1TWGZf3d1IDmG2z/tsMkf3VPrXu04xoUtfmeTOTqz0LXws/wCDd39pD4s/DvRPEtlouiWdlr1nHewRXmoLFOkbgMu9MZUkEHB6V0P/ABDM/tMf8+HhX/war/hX9HkECW0KRxqsccahVVRgKBwABTq8/wDtCp5HZ9Ugfzgn/g2Y/aYC/wDHj4V+n9qr/hR/xDM/tMZ/48PCv/g1X/Cv6PqKP7Qq+QfVIH84Y/4Nlv2mD/y5eFP/AAaj/Cgf8Gyv7S5/5c/Cn/g1H+Ff0eUUf2hV8g+qQP5xF/4NlP2lm/5c/Ca/XVR/hSj/AINkv2liP+PXwn/4NR/hX9HVFH9oVfIPqkD+cYf8GyP7Sx/5dfCf/g1H/wATSj/g2P8A2lSP+Pfwj/4NR/8AE1/RxRR/aFXyD6pA/nJH/Bsd+0of+WHhH/waD/4mgf8ABsb+0ocfufCPP/UUHH/jtf0bUUvr9XyD6pA/nLH/AAbF/tJn/ln4R/8ABp/9jR/xDFftJf8APPwh/wCDT/7Gv6NKKf8AaFXyD6pA/nMH/BsT+0kT9zwf/wCDT/7GlH/BsN+0if4fB/8A4M//ALGv6MqrazrFr4e0i61C+njtbOxiaeeaRtqRIoLMxPYAAml9fq+QfVYH8sH7df8AwSb+JH/BPHwdpGsfEG88MxDXblraytbO+864mKruZtuPuqMZPqQK+X6+qv8AgsN+33df8FAP2xNZ162nk/4RHQWbSvDsBPyi2RjmXH96RssfbA7V5x+wT+yDrX7cv7Unhf4eaMkirqlwJNQuQuVsbNDmaU/ReB6kgV61OUlDmqHDKKcrQP1F/wCDXX/gnzNbLqnx+8SWrxpMsmleGY5FxvHSe5+n8Cn/AHq/aCub+EHwp0X4G/C/QfCHh2zjsdE8O2UdjaQoMBURQAT7nqT3JNdJXhVqrqTcmepTp8keUK/k3/4Kr+FLrwZ/wUq+OtneQtDNN431W/VWHWO5uXuI2/4Ekqn8a/rIr+ff/g6Y/Zbn+GX7aGh/Ey1tmGkfErSkjuJhyP7QslWF1Ppm3+zEepD+hrpy+Vqlu5z4yN4X7HnP/BtX8W4vhl/wVL8P6fO6RReNtF1HQd7NtAbyxdIPqz2qqB3LCv6Tq/ja+EHxT1j4HfFbw34y8P3C2uueFdTt9VsJWXcqTQyLIm4d1yoyDwRkV/Wl+xd+1r4Z/bf/AGbvDPxH8KzRtZ65bA3Vp5m+XS7tQBNaycA743yMkDcu1h8rAm8wpvmUycDUVnA9TooorzTuCiiigAr+UH/grZ8VovjT/wAFKfjRr1vMlxbN4nubCCVG3LLFaEWiMp7grCCPY1/Q1/wV5/4KB6b/AME9P2PNd8RR3luvjbXon0rwpZlgZJr11I8/bg5jgU+axI2kqiEgyLn+V2ed7mZ5JGaSSRizMxyzE8kk16mXU3rN+h5+OqbQPur/AINvfCN14k/4Kz+BL23jaSHw/p2rX90wH+rjbT57cE/8DnQfjX9LlfjN/wAGm37LE9hpnxH+M2oWzRx3wTwpo0jceYislxdsB3XcLVQw7q47Gv2Zrnx0+arp0NsHG1P1CiiiuM6gooooAKKKKACiiigAooooAKKKKACiiigAr8H/APg5y/4KKf8ACz/ihZ/Avwxfb9D8JSC78QvE/wAtzfEfJCcdREpyR/eb2r9Uv+Cp/wC3Tp//AAT/AP2QvEHjKSSJvEF0h0/QLVjzc3sgIQ47qnLn2X3r+VXxd4r1Dx14p1HWtWupr7VNWuZLu6uJW3PNK7FmYn3JNejgKN37R9DjxVSy5EN8MeGr7xn4ksNI0u1lvNS1O4S1tYIl3PNI7BVUD1JIFf1S/wDBKL9hCx/4J+/sgaD4R8qJvEl+g1LxBcqPmnvJFBZc/wB2MYQf7ue9flV/wbJ/8E6/+Ft/Fy6+N/iex3+H/BkpttBSVPlu9QI+aUZ6iJT1/vMPSv3qp4+td+zXTcMLTsudhRRRXmnYFFFFABRRRQAUUUUAFFFFABRRRQAUUUUAFfl5/wAHLH/BRT/hQXwFg+D/AIZvvL8VfECItqbxPiSy00HDA46GVht/3Q1fon8f/jfoP7N3wZ8R+OfE10tpovhqxkvbhycFto4RfVmbCgdyRX8m/wC2X+1Lr37Zv7SPij4ieIJGa7167Z4YS2Vs7ccRQr6BUAH1ye9d2Bo88+Z7I5cVU5Y8q3Z5fX9En/BuN/wTs/4Zd/Znb4leI7HyfGnxIiSaJZUxJYad1iTnkGT759tvpX5Q/wDBEn/gnxN+3v8Ath6bb6lavJ4H8Hsmra/IV+SVVb93b59ZGGMf3Q1f0+2VlDptlDb28aQ29ugjjjQbVRQMAAdgBW+YV7fu18zLCU/tsloooryjvCvnb/gqV+wlYf8ABQ79j3xB4DkMFvr0WNU8O3kvC2eoxK3llj2R1Z4mODhZSQMgV9E1xP7Rf7Qfhf8AZX+CviDx94z1BdN8O+G7Y3NzJwXkPASKNcjdI7FUVe7MBVQbUk47kySatLY/kE8feA9Y+F3jbVvDfiDT7rSdc0O6ksr6zuU2S200bFXRh6ggivpH/glt/wAFV/G3/BMv4py3mlo2veCdbdRrvh2aYpHdAcCaJsHy51HRsEMPlYEYx5z+3t+1/qn7dn7Vfir4mapp9ppL69Oq21lbqMWttEojhRmAHmOI1Xc55Y56DAHjtfSez54WmjxOblleJ/Wx+xd/wUX+Ef7fHhCPUvh34qs76+WIS3miXTC31bTeBkS25O7AJA8xN0ZOdrmvcK/jB0TXb7wzq1vqGm3l1p99aOJILm2laKaFx0ZWUgqR6g19JfDf/gs1+1H8KbXydL+NXjS4jA2garOmrFR7G7WUj8K82plzv7j+87YY5faR/VZXy7+3/wD8Fd/g7/wT28O3kfiTXrfXPGiRE2fhXSplm1GaTA2+djItozkHfLjK5Kq5G0/zv/FX/grF+0l8abeaHX/jP48ktrhSktvY6i2nQSqeCrR2/lqQfQjFfPc88l1M0kjtJJISzMxyzE9STRTy7W82E8dp7iPbP29/29/HX/BQ346XXjXxrdKiIDBpOkwMfsejW2ciGIHuerOfmduT2A5P9lf9mbxT+2D8evDnw88HWbXet+IroQqxB8q0iHMk8pAO2ONAzsfReMnALf2af2W/Hn7X3xSs/B3w98O3/iLXLwglIE/dWseQDLNIflijGRl3IHIHUgV/SN/wSP8A+CR/hf8A4Jm/DGSaaS28QfErxBCq65riodka5DC1tgRlYVYAkkBpGG5sAKq9VevGjGy36I56NGVWV3se/wD7KH7Nugfsg/s6+E/hv4Zj26T4VsFtUkZcPdSkl5p3/wBuSVnkPbLnHFeh0UV4Tbbuz2ErKyCiiikAUUUUAFFFFABRRRQAUUUUAFFFFABTZZVgiZ3ZVRAWZicBQOpNOr8//wDg4N/4KJD9jb9k+Xwn4fvhD46+I0clhaeW+JLGzxief1BIOxT6sT2q6dNzkoomclFczPyf/wCC9f8AwUPb9t/9ru60nRLxpvAfw/eTTNKCN+7u5gcT3PvuYbQf7qj1r5T/AGYv2ede/as+PPhn4f8Ahq3afVvEl6lqhAysCE5eVvRUUFifQVwjMXYsxJYnJJ71+7//AAbHf8E6/wDhWHwvvPjp4nsdmueLY2tPDySp81tYg/PMM9DKwwD/AHV969upJUKWnyPLhF1Z6n6Tfsrfs46D+yV+z/4X+H3huBYdL8N2SW4YLhriTGZJW9WdyWP1r0KiivCbbd2ettogooopAFFFFABRRRQAUUUUAFFFFABRRRQAUUV4L/wUn/bY0r9gf9kvxJ48vnifUo4jaaLaMeby9kBESgegPzN7KaqMXJ2QpSSV2flp/wAHPv8AwUU/4SzxbY/APwvfbtP0V01DxO8L8S3OMw2xx2QHcw9WX0r8hdG0e68Q6va6fYwSXV5fSrBBDGu55XYhVUDuSSBV/wCIPjzVfij451bxHrl5NqGsa5dyXt5cSHLSyyMWYn8TX6Wf8G0//BOv/hfvx6n+MHiax8zwr8P5QulpKn7u91IjKkZ6iIHd/vFa91ctCl6fmeU71ah+rX/BHn9gS1/4J/fsd6NoNzBH/wAJdryrqviKcD5jcuoxFn+7GuFHvk96+qqKK8KcnKXMz1IxUVZBRRRUlEd5eQ6daS3FxLHBbwIZJJJGCpGoGSxJ4AA5JNfzef8ABeH/AIKzSft8fGceDfB17Kvwo8E3LCzKsQuvXgyj3rD+4AWSIHkKWbgyFV+vP+DkD/grivhjStQ/Z3+Hepf8TK+jC+NNStpP+PWFhkacjD+NwQZcdFITks4X8Qq9jAYW372XyPNxde/uR+Zc8O+Hr7xdr9jpWl2dzqGpalOlra2tvGZJriV2CoiKOWZmIAA5JNf0HfsK/wDBun8K/Cf7Fi+HfjN4attf+IHirZqOqahBcNHdeH5NhEdtazIfl8sMd/3kkfO4OqpjyH/g3A/4JG/8Irp1h+0N8RtL/wCJjfRF/BWm3MfNtCwwdRdT/E6kiLPRSX/iQj9jKzx2LfNyU3saYXDq3NNH4g/tLf8ABpl4gsL24vPhH8S9L1KzZi0Wm+KYHtZ4l7L9pgV1kb3MUYr5X17/AINy/wBrjSNQkht/hvp+qRocCe18T6Wsb+4Etwjfmor+maisI4+qt9TSWDps/ml8G/8ABtz+1l4n1WO3vvA+ieHYZDhrrUPEthJFH7kW8sr/AJKa+wP2W/8Ag01trG+ttQ+MnxI+2xxndLo/hWAoknoDdzrux2IEIOOjDrX7NUUpY6rJW2CODpo89/Zs/ZR+Hf7IPgCPwz8N/Cek+FdIUhpEtIyZrtx/HNMxMkz9t0jMccZwAK9Coorkbbd2dSVtEFFFFIAooooAKKKKACiiigAooooAKKKKACiiigDH8f8AjvS/hh4I1bxFrl5FYaPolpJe3lxIcLDFGpZifwFfyl/8FKv22dU/b5/a18SePL15U0uSU2ei2jHizsYyREuPUj5j7sa/Uv8A4OfP+Cin/CI+D7H4B+F77bqGuImoeJ3hf5obbOYrY47uRuI/uqPWvw6iiaeVY0VmdyFVQMliegFevgKPLH2j6nn4qpd8iPoz/glh+wtqH/BQD9r3w/4NjjmXw/ayDUNfulHFvZRkFxnsz8IPdvav6qvCPhTT/AnhbTtF0m1hsdL0m2jtLW3iXakMSKFVQPYAV8T/APBBT/gngv7EH7Ilrq2t2aw+PPiAkep6qXX95aQkZgtvbap3Ef3mPpX3RXJjK3tJ2WyOjD0+SN3uwooorjOgKKKKACvE/wBuL9vz4e/8E/8A4aReJPHmoSQreO0VjY26+ZdXzgZIRfQZGSeBmvZNW1W20LS7m+vJo7a0s4mmmlkbakSKCWYnsAATX8uP/BZL9v8Auf2/v2xNY1izuJG8G+HGbSvD0BPy+QjHdNj+9I2W+m0dq6sLh/ays9jGvW5I6bn6fS/8HX/wlWVlXwD4zZVPytvhG4fnSr/wdffCUnnwD4z/AO+4f8a/A4AtS7G/un8q9L6jSOH61UP3zX/g67+EWefAvjT8Gh/+Kpw/4Ouvg/jnwN41/wDIPP8A49/nNfgVsb+6fyo2N/dP5UfUaQfWqh+/P/EVv8HM/wDIk+Nvyh/+Kpw/4Otvgzn/AJEvxt/3zDz/AOPf5zX4CbG9D+VGxv7p/Kj6jSD61UP39X/g6z+C5HPg3xv/AN8Q8/8Aj3+c04f8HWXwW/6E7xx/3xD/APFf5zX4AbG/un8qNreh/Kj6jSD61UP6Af8AiKv+Cf8A0KPjj/v3D/8AFf5zX5q/8Fo/+Crzf8FLPiroqaDbajpPgPwxb4sbG6IEk1y/+sncKSM4wo9AD618UbG9D+VKkLyMFVWZjwAB1rSnhacJc0SZ4iclZnXfAD4Ia9+0l8ZvDngbwzatd614lvo7K3QDIXceXb0VVyxPYA1/WR+xp+y1oP7GX7N3hf4d+H41W00G0VJpguGvLg8yzN6lnJP0wO1fmt/wbNf8E0rr4aaDqHxy8aaVJa6xqyNYeGre5j2yW9sf9bcYPILn5Qf7oPrX6815uOr80uRbI7MLS5VzPdhRRRXCdQV8Uf8ABa7/AIKqWP8AwTl+ALWOhXFrcfFPxhDJBoFocSf2dH917+Vf7qHhA3DyYGCqvj6A/bW/bD8J/sK/s7a98RPGFyqWWlx+XZ2auFn1W7YHyrWIHq7kdcHaoZj8qkj+Vr9r/wDaw8W/tsftAa/8RPGd39o1bW5sxwIT5Gn268RW0Kn7saLgDuTliSxJPdgsL7SXNLZHLiq/IrLc8/8AEHiC+8V67e6pqd5cahqWpTvc3VzcSGSW4ldizu7HlmZiSSeSTX3t/wAEHP8AgkzJ+3v8Zz408Y2ci/CnwTdIbxXUhdfvBh0slP8AcAKtKRyFKrwZAy/OP/BPD9hDxR/wUO/aV0nwD4dDWtq/+lazqrRl4dIslI8yZvVuQqLkbnZRkAkj+p79nT9n3wv+yv8ABXw/4B8G6eum+HvDdqttbR8F5D1eWRsDdI7FnZu7MTXdjcV7OPJHd/gcuFoc75pbHZWlpDp9pFb28UcMEKCOOONQqRqBgKAOAAOMCpKKK8M9QKKKKACiiigAooooAKKKKACiiigAooooAKKKKACiiigAooooAK8w/bJ/aj0H9jT9m/xR8RPEMqrZ6DaNJDCWw13cHiKFfdnIH0ye1en1/P7/AMHLP/BRT/hfXx4g+Dvhm+8zwr4AmL6q8T5jvdSIwQcdREp2/wC8W9K3w9F1J8vQyrVOSNz86v2gfjjr37Sfxn8SeOvE1013rXiW+kvbhychNx+VF9FVcKB2AFfZ/wDwb5f8E7T+2T+1hF4s8QWJm8C/DmSO/u/MT93fXmcwQehAI3sPRQO9fC/gDwJqvxQ8b6T4d0Ozmv8AWNbu47Kzt41y0ssjBVA/E1/Vp/wTV/Ym0v8AYG/ZK8N+A7JIn1SOIXmtXajm8vpADK2fQH5R7KK9XGVvZw5Y7s4MPT55XZ74qhFCqMKOAB2ooorwz1AooooAKKK5P47fGnQv2dvg/wCIvG3iW6Sz0Xw3ZSXtzIxxkKMhR6sxwoHckULXRAfnh/wco/8ABRX/AIZ4/Z9h+Enhq+8rxb8QoT/aDRPiSx00HD5x0Mp+Uf7Iav58q9U/bV/as139tP8AaW8UfETX5H+0a5dM1tAWytlbLxFCvsqAD65PevbP+CKv/BPqb9vr9sTS7HULaRvBPhNk1bxBLj5JI1b93b59ZGGMf3Qxr3qMFQpa/M8mpJ1Z6H6a/wDBBH/gkF4T8LfspL49+KfhHS9e8ReP9l3ZWuqWqzf2dYgHysKw4aTJc+22vu0f8E8PgaB/ySnwN6/8gmL/AAr2DT7CHSbCG1too4Le2jWKKNF2rGijAUDsABipq8epWnKTlc9KNOMVY8Zb/gnh8DW6/CnwLz/1CYf8KG/4J2/At+vwp8Df+CmL/D3r2ais/aS7lcq7HjB/4J2fAs5/4tT4G5/6hMX+FKf+CdvwLP8AzSnwP/4KYv8ACvZqKOeXcOVdjxk/8E7fgWf+aU+Bv/BTF/hTW/4J1fAtj/ySjwN/4KYv8PevaKKPaS7hyrseLn/gnT8Cj/zSjwN/4KYv8PerWk/sBfBPQtQjurT4W+CYbiEhkddJiyp/KvXqKPaS7hyrsR2dnDp9rHBbxxwwxKFSNF2qg9AB0qSiipKCs/xb4s0zwH4W1HW9avrXS9I0i2kvL28uZBHDawxqWeR2PAVVBJPoK0K/Cv8A4OOf+CuR+J3iS+/Z/wDh3qbf8I5os+3xfqFvJ8up3cbZFipHWKFhl/70gA6R5bbD0XVnyozq1FCN2fJ//BZX/gqNqn/BSL9oeRtOluLP4a+E5JLbw1p7ZUzAnD3sq/8APWXAIB+4gVeu4t8s/DD4Z678ZviFo/hXwzptzrHiDxBdx2VhZ267pLiVzhQPT3J4ABJwAawQMmv6Bv8Ag3j/AOCR3/DL/wAPLf4z/EDTPL+Iniq0zo1jcx/vPD2nyD7xB+7cTKcnukZC8FpFr3KtSGHp6fI8qnGVaep9R/8ABKP/AIJtaF/wTX/ZstvDsH2bUPGWubL3xPq8af8AH5c7eIkJ58iLLKgOM5Z8AuRX0/RRXz8pOT5pbnrxioqyCiiipKCiiigAooooAKKKKACiiigAooooAKKKKACiiigAooooAKKKjvb2HTrOa4uJEhggQySSOdqooGSSewAoA+Wf+Cwf7fdr/wAE/v2PNa1+3nj/AOEu15W0rw7AT8zXLqcy4/uxrlj7gDvX8tetazdeI9YutQvriW6vb6Zp55pG3PLIxLMxPckkmvr7/gtx/wAFCJv29v2w9Sm0y6eTwP4OZ9J0GMN8kqq37y4x6yMMg/3QteDfsbfsua9+2X+0h4X+Hfh6JmvNeu1jmmC5W0txzLM3sqAn64HevcwtJUqd5b9Ty69RznZH6Zf8Gwf/AATr/wCEu8X33x88UWO7T9Dd9P8ADCTJxNc4xLcjPZAdoP8AeY+lfuPXHfs/fA7Qf2bPgx4b8C+GbVbTRfDVjHZW6AYL7R8zt6szZYnuSa7GvJr1nUm5HoUqfJGwUUUViaBRRRQAV+IX/Bz9/wAFFP8AhIfEVj8AfC99mz0tk1HxQ8L8ST4zDbHH90Hew9SvpX6k/wDBRz9tLSf2C/2TvEvj7UGie+t4Ta6RaM2De3sgIiQD0B+Y+iqa/lF+I/xC1b4sePtY8Ta9eS6hrGvXcl7eXEhy0skjFmP5n8q9DAUeaXtHsjjxVSy5EZuk6Vc67qltY2cMlzd3kqwwxRrueV2ICqB3JJAr+o7/AII2/sAW37AH7Hej6PeW8a+MvEarqviGYD5vPdRthz/djXC/Xce9flJ/wbXf8E6/+Gh/2gpvi34lsfN8JfD2Yf2esqZjvtSIymPURD5j/tFa/oNqswrXfs18xYWnb32FFFFeadoUUUUAFFFFABRRRQAUUUUAFFFfP3/BSj/goF4Z/wCCc37NGpeNtbaK81i4DWfh/SN+2TVr0r8qeojT78jfwqOMsVU1GLk+VClJJXZ80/8ABfj/AIK1L+xF8Ij8OvA+pbPip40tW/fwP8/h2wbKtck9Vmk+ZYu4wz5G1d386E0z3MzSSM0kkhLMzHJYnqSa6r46fG7xN+0h8XNe8ceMNTm1jxJ4ku2vL25kPVj0VR0VFUBVUYCqqgAAAV7v/wAEnP8Agmvrn/BSf9pW18Pxrd2PgnQyl74o1eJcfZLbPEKMePPlIKoOcYZ8EI1fQUaccPT1+Z5FSpKrPT5H1H/wbv8A/BI8ftNeP4fjR8QtLaT4feFbr/iSWVyn7vxBqEZ++QfvW8Lcn+F5AF5CyLX9AVYfw1+G2hfB3wBo/hXwzplto/h/QLWOysLK3XEdvEgwqjPJ9ySSSSSSSTW5XiYiu6s+Z/I9OjSVONkFFFFYGoUUUUAFFFFABRRRQAUUUUAFFFFABRRRQAUUUUAFFFFABRRRQAV+bv8Awcb/APBRT/hlr9mdfhv4cvvJ8afEiJ4JWifElhp3SWTjkGT7g9t3pX3/APF34qaL8D/hjrvi7xFeR2OieHbKS+vJnOAqIpJx7noB3JFfyfft8ftga1+3N+1L4o+IWsPIqapcGPTrZmytjZoSIYh9F5PqSTXZgqPPPmeyObE1OWNluzxvNf0B/wDBtN/wTr/4UJ8B7j4xeJrHy/FXj+EJpaSpiSy00HIIz0MrDd/uhfWvym/4I+fsCXX/AAUB/bD0XQLiCT/hEdBZdV8RTgfKtsjDEWf70jYUexJ7V/UpoujWvhzR7XT7G3jtbKxhWCCGNdqRRqAqqB2AAArqzCtZezXzMMLTu+dlqiiivJPQCiiigAoZtoyeAOST2or4h/4Lu/8ABQ5P2Gf2Qbyx0a8WLx348STS9HVW/eWsZXE1zj/YU4B/vMPSqpwc5KKJlJRV2fk//wAHDX/BRM/tf/tVSeC/D9953gX4byyWUBjfMd9fdJ5/QgEbFPopPeviL4E/BbXf2ifjB4d8E+GrV7zWvEl7HZW0ajoWOCx9FUZYnsAa5Sed7mZ5JGaSSRizMxyWJ5JJr9vP+DYH/gnX/wAI94cvvj94oscXmqK+neF45k5jgzia5Gf7xGxT6BvWvdnKNCloeXFOrU1P02/Yq/ZU0L9iz9mnwv8ADvQI0+z6HaqtzOFw17ctzLM3uzkn6YHavVKKK8GUm3dnqpWVkFFFFIYUUV8//wDBQj/gpB8O/wDgnH8J/wDhIvGl411ql8GTRtBtGU32ryjsoPCRrkbpG+VR/eYqpqMXJ2QpSSV2e/SyrDGzuyqijLMxwAPU18s/tCf8FrP2Zf2a7yey1z4paLqeqW+Q1joKSavLuHBQtbq0aN7O61+CX/BQT/gsx8Zv+Cger3lnq+tTeF/A0jkW/hfR5mhs9mcr9oYYa5fgHMnygjKomcV8mZr0qeX9aj+44KmO6QR/Qtff8HWP7ONpctHH4Y+MF0qnAki0ewCt7jdeg/mK3fh7/wAHQf7MfjXVkttQ/wCFh+EoWODdatoSSQr9RazTv+S1/OZRW/1Cl5mP1yof18/s7ftp/Cf9rTTjcfDnx/4Z8WFY/NktrO8H2yBfWS3bEsY/30Fen1/GP4U8W6r4E8Q2er6HqWoaPq2nyCa1vLK4e3uLdx0ZHUhlYeoOa/Wb/gl5/wAHL3iDwNqmm+C/2hJZvEOgSslvb+Loos6hpw6A3SKP9IjHGZFAlAyT5pPHJWy+UVeGp00sYpaT0P2u+MXxe8O/AP4X654y8Wanb6P4c8O2j3t/dzH5Yo19B1ZmOFVRkszAAEkCv5a/+Cof/BRLxD/wUg/aZ1DxdqBuLHwzp5ay8NaO75XTbMNwWA486Th5GGcnAB2qoH0t/wAF/v8Agr1H+2n8RV+GPw91Tzvhb4VuN9xeW7ny/Et8uR5ue9vHkiMdGO5+QU2/m9Y2M2p3sNtbwyXFxcOI4oo1LPIxOAoA5JJ4wK7MDheRc8t/yMMVX5nyx2Oz/Zx/Z58VftWfGrw/4B8F6c+peIfEVyLe3jHCRDq8sjfwxooZmY9FUmv6oP8Agnt+wt4W/wCCev7NWj+AfDarcXEY+1azqjJtm1e+YDzJm9F4Cov8KKo5OSfnP/ghH/wSbh/YC+Cn/CXeMLGFvix41tla+3AM2g2hw6WKn++SFaUjguFXkRhm+/K4sdivaPkjsvxOnC0ORcz3CiiiuA6wooooAKKKKACiiigAooooAKKKKACiiigAooooAKKKKACiiigAoorxv9vf9r/Rf2Gf2W/FHxD1h42bS7cx6fbM2Gvrx+IYh9W5PoATTjFt2Qm0ldn5f/8AB0F/wUU/48P2f/C99/zz1LxU8L/jBanH/fbD/dr8X7Kym1K8ht7eN5p53EccaDczsTgADuSa3/i98Vda+OPxP17xd4ivJL7W/EV7JfXkznJZ3Yk49h0A7ACvv/8A4NyP+Cdf/DUn7TDfEjxHY+d4L+G8qTxLKmY7/UesUfPBEf3z77R3r3oqNClr/TPKbdWofq9/wRH/AOCe8P7BP7Hmmw6napH448Yqmra9IV+eJmX93b59I1OCP7xavsiiivCnJylzM9SMVFWQUUUVJQUUUUAUfE/iWx8GeHL/AFfVLqKz03TLd7q6nlbakMaKWZifQAE1/K3/AMFXf2777/goD+1/r3i7zZV8N2DnTfD9sx+WCzjYhWx/ekOXP+9jtX6qf8HNn/BRT/hUnwjtfgh4YvtniDxnELnXnif57TTwfliOOhlYdP7qn1r8FVBY4HJPAA7162Ao2XtGefiql3yI90/4Jx/sW6t+3p+1j4a8A6esqWNxMLrV7tVyLKyjIMrk+pHyj1ZhX9XXw4+Huk/CfwDo/hnQbOLT9H0G0jsrO3jXCxRxqFUfp+dfB/8Awby/8E7B+yB+yrH408QWPk+OviRFHeziRMSWNj1gg9QSDvYerAdq/QquXGVuedlsjow1Pljd7sKKKK4zoCiiigDy39tD9rXwz+xB+zf4k+JHiqT/AEDQoP8AR7VXCy6ldN8sNtH/ALTvgZwdo3MeFNfysftgftc+M/23fjvrHxA8cag15qmqSEQwISLfTbcE+XbQKSdsaA4A6k5YksST9/8A/B0f+2ndfFH9qHSfg3pd248P/Dm2S91KJGO241S5jDgtzhvKt2jC91aWYd6/MTwX4N1T4i+MNK8P6JY3Gpazrl5FYWFpAu6W6nlcJHGo7szMAPc17WCoqEOd7v8AI8vFVXKXKtkdL+zt+zb43/av+Ken+C/h/wCH77xJ4i1I/u7e3ACxICN0krsQkca5GXchRnrX7TfsW/8ABq54E8GaPZ6r8cPEd94y1xgHl0TRJ2stKg9Y2mwJ5u3zKYccjB619kf8Epv+CZ/hv/gm1+zvZ6Lbw2d9461qGO48Ua0i5e7uMZ8mNjyLeIkqg4zy5AZjX1FXLiMdKTtT0R0UcLFK89z50+Hv/BIz9mT4Y6Z9j034H/Dq4hxjdqukpq0v/fy781/1rhvjV/wQU/ZX+Ndpc+d8MLHwzfXClUvfDl3Npr25/vJEjeRn/eiYe1fYlFcftpp3uzp9nBq1kfz2f8FJf+DbTx5+yzoeoeMPhTqF58SvBlkDNc6e0AXXNMiGcsUT5blFGMtGFcZJ8rapYfmURtODwR1Ff2kV+F//AAcj/wDBJrT/AIQ3DftAfDvS47HQtWvFg8X6baxbYbG6lbEd8gHCpK52SDgCRkIyZDt9LCYxyfJU+84MRhVFc0D8h6/ZD/g2/wD+CRn/AAkF/p/7RHxG0xW0+1cv4K025TP2iVSQdRdT/ChBEWeSwL8bULfjfX9RH/BC79ruP9r7/gnT4MvJxDHrngqMeE9VjiTYvmWkaLE4H+3btCxxgbi4AAFdGPqSjT93qZ4SMZT1PsCiiivBPWCiiigAooooAKKKKACiiigAooooAKKKKACiiigAooooAKKKKACiiigAr+d//g5E/wCCg037Sf7T4+GOh3T/APCH/DaRoZtrfJfaiRiWQ+oQfIP+BHvX9EFfy9/8FxP2Qda/ZU/bx8Vy3kcsmi+MrqTWtLujysqSMS6Z9VYkY+ld2XqLqa79DlxbfJofLvwj+FmtfG/4naD4R8O2kl9rXiK9isbOFBkvI7AD8B1J7AGv6wv2B/2P9F/YZ/Za8L/D3R0jZ9LtxJqNyq4a+vHGZpT9W4HoABX8pHwJ+Mmsfs+fF/w9400CdrfVvDt7HeW7j1U5IPsRkfjX9Yf7Ef7Vmi/tn/s1+GfH2iTRtHq1sv2qEMC1rcKMSRt6ENn8K6Mx5rLsZYO133PWKKKK8k7wooooAK4/4/8Axl039nr4K+J/G2rBm0/wzp01/Kifek2KSFHuTgfjXYVxP7R3wYsf2iPgV4q8EaixWz8TabNYuw/g3qQD+BwacbX1B3tofyX/ALVX7R2v/taftAeKPiB4knabVPEd69wVLZW3jziOJfRUUBR9K+nf+CEX/BPF/wBub9r6zvtZs2l8CeA3j1TWGZf3d1IDmG2z/tsMkf3VPrXy9+1B+z1rn7K/x28SeBPEVu8GpeH7x7ckqQJkB+SRfVWXBFfop/wbJ/t82XwR+NGqfCPX5Le10vx3Ktxp1wwClb1VwEZschl4GT1HvXv1pNUb0+x5NOzqe+fvpBAltCkcarHHGoVVUYCgcAAU6jNFfPnrBRRRQAUUUUAfx8/tafGG4/aC/ag+IPji4Zmk8VeIb3UlDHPlxyTuyJ9FQqo9gK+1P+DY39nS1+Mv/BRNvE2o2/n2Xw10O41iHegaP7ZIyW0IOe4WWWRT2aIHtX523KslxIr/AHgxB+tfsd/waIahZx+LfjtaybP7Qms9Elhz97yke+EmPbc8X6V9Biny0XY8bD+9VVz9tqKKK+fPZCiiigAri/2jvgjpf7SnwD8YeAdaSNtN8XaRc6XKzIH8kyxlVlAP8SMVdT2ZQe1dpRQnZ3Qb6H8YWvaJc+GtdvdNvI2hvNPne2njYcxujFWB+hBFfrz/AMGknxlmsvir8W/h7Izvb6npNr4hgUn5Ymt5vs8hA9WF1Fn/AK5ivzI/bUvrHVP2x/ixc6Zt/s248ZavLa7fu+U17MUx/wABIr7z/wCDT1WP/BQXxu38I+Hl2D9f7S03H9a97Fa0Xc8fD6VVY/oIooorwT2AooooAKKKKACiiigAooooAKKKKACiiigAooooAKKKKACiiigAooooAK+Nf+C3H/BP2H9ur9kPUl061STxl4SR9S0aQL88hUZeH6Oo/PFfZVIyh1KsMqwwQe9VCbjLmRMoqSsz+L7UtOn0jUJ7W6ikhuLaRopY3G1kYHBBHqDX6bf8G2//AAUTP7Pvx7k+FPiS+Mfhbx1IPsLSudlnfdFx2AccfXFYv/Bxh/wTu/4Zf/aRHxE8O2Pk+D/H0jTSrGmI7O96yLx0DfeH41+c+ia1deHNYtdQsppLe8spVnhlQ4aN1OQQfYive92vS9TytaU/Q/s+ByKK+Sf+CNf7flr+3p+yHpOpXVxE3i7w6i6brcAYb/MUYWXGc4cDOfXNfW1eDOLjLlZ6sZKSugoooqSgooooA/JX/g5o/wCCdX/Cyvhva/G3wxYbtY8MoLbXUiT5ri0/hlPqUPB9j7V+GXhLxVf+BvE+n6xpdxJZ6jpdwlzbzRttaORCCCD9RX9kfjbwdp/xD8I6loerW0d5purWz2tzDIu5ZEcEEEH2Nfyr/wDBUj9h7Uf2C/2tvEHhGaORtFuJDfaNcEfLPauSVGfVfun6V62ArXj7Nnn4qnZ86P6Iv+CTv7dlj+3x+yNofibzYx4i01F0/XLcH5o7lAAWx6OPmH1r6ar+ZP8A4IVf8FCJP2IP2t7Gy1a7aPwV41dNO1RGb5IHJxHP/wABY4PsTX9NFneRahaRXEMiywzIHjdTlXUjIINcWKo+znpsdWHqc8fMkooormNgooooA/kT/b2+BU37M/7aHxO8CyQyQQ+HvEV3BaBxgvatIXt3/wCBQtG30avpj/g3H/ags/2c/wDgpNoum6rcR22k/ErT5fCrySMQkdzK8ctrx/eeeFIh6efX0h/wdR/sL3GhfEDw78fNDs2bTdcij0HxKYk/1F1GD9luHPpJEDFnAAMEYzlxX5AWN9Npd7Dc200lvcW7rLFLGxV43U5DAjkEEZBFfQQarUfVHjTTpVT+0OivhD/gil/wWA0X/goJ8JLPwt4o1C1sfjB4btFj1K1kIj/t6NAB9tgHRiRgyIv3GJIAQrj7vrwqlOUJcsj14TUlzIKKKKgoK8t/bY/aX079j39lLx38SNSkhVPC2ky3FrHKflurthstoP8AtpO0ae27PQV6ZqWpW+jadcXl5cQ2tpaxtNNPM4jjhRRlmZjwqgAkk8ACv54f+C//APwV4tf24fH1r8Nfh7fGb4YeD7szzXyDaviLUFDJ5y9zBEpZY+m4u7HI2Y6MPRdSdunUxr1VCN+p+cF7eS6jeTXEztJNO5kkdjksxOST9TX7L/8ABpJ8Cpm1b4ufEy4gkWCOG08M2M2PllZmNzcr9V2Wp/4HX416RpN1r+q2tjY2811eXsqwQQRIWkmkYhVVQOSSSAAOpNf1bf8ABKn9i9P2Df2HvBvgOeOJfEHknVPEEiY/e6jcYeUZHDCMbIQ3dYVNeljqnLT5e5wYOF583Y+iqKKK8U9UKKKKACiiigAooooAKKKKACiiigAooooAKKKKACiiigAooooAKKKKACiiigDxn9vr9kPR/wBt79l7xL4C1aOPzNQt2ksJyPmtbpRmNx+PB9ia/lD+Mfwo1j4GfFHXPCPiC1ks9X0C8ks7mJ1IIZTjP0PUexr+yKvxb/4Od/8AgnXn7D8ePC9j/dsfEkcKfhHcHH/fJP0r0MDX5Zcj2ZyYqndcyPhv/gix/wAFALj9g/8Aa80u6v7iRfB/ih003Wot3yojHCTY9UY5+ma/qA0jVrfXtKtr6zmjuLW8iWaGVDuWRGGQQfcGv4vwdpyK/oa/4NxP+CiX/DSf7PDfDLxFfeb4t8BRBLZpXy95Y9EPJySn3T7YrXMKOntF8zPCVPsM/S6iiivKO8KKKKACvhH/AIL3f8E9F/bT/ZOutb0WzEvjbwIj6hYFF/eXMIGZYeOuQMgeor7ups0K3ELRyKrxyAqykZDA9qunNwkpImUVJWZ/F7LHLp92yMHhmhfBB+VkYH+YNf0cf8G9H/BQ4ftbfsvJ4L1++87xp4ARLWQyPmS8tOkUvPUj7p+gr8v/APg4B/4J4t+xz+1VN4m0OzMXgnx7I97amNcR2lyTmWHjpycj2NfPH/BOb9szVv2Ff2q/Dfjiwkk+wwTrb6rbqeLq0cgSKR7Dke4r2a0FXpXiebTk6VSzP606Kwfhh8R9J+L3w90fxPod1HeaTrlpHeW0yHIZHAI/LpW9XhnqBRRRQBx/x/8AgV4b/aa+DXiLwH4vsV1Hw74ns3sryLjcoPKyISDtkRgro2PlZVPav5bf+Ckf/BObxp/wTh+PF14X8RQTXug3rvNoGupEVt9XtgeCOoWVcgPHnKk91Ksf6wq87/ai/ZT8Cftk/CPUPBPxC0G21zQ74bk3fLPZSgHbNBIPmjkXPDDqMg5UkHqwuJdJ67HPiKCqLzP5DvBnjXWPhz4r0/XfD+qahoutaVOtzZ31jO1vcWsqnKujqQysD3Br9Xf2Kv8Ag6n8XfD7SbPQ/jb4SHji3gwn/CQaK0dnqewZyZbcgQTN0AKtDwOdxJNeY/8ABQj/AINufiz+zPqF9rvwvhuvip4JVmkSGzj/AOJ5YJ2WS3H+vxnG6DJOCTGgr859Z0S98OapPY6hZ3Vje2rmOa3uImiliYcFWVgCCPQ16zjSrruebepRfY/pC8Df8HLn7Kvi3S/tF/4j8VeGJcZ+zan4euJJfpm2Eyf+PVw/xk/4OofgD4JsLpfCWg+PPG2oIp+z4s49Os5T/tSyuZFHuIW+lfz10Vl/Z9K/U0+uVD7O/wCCif8AwXJ+Mf8AwUGs7rw/c3MHgf4fTtz4d0aRgLxQSV+1znDz44+X5IiVU+WGGa+Ma9E/Z2/ZN+JP7WfjCPQvhz4L17xZqDMqyfYrYmC2DHAaaY4jhX/akZVHrX7Kf8E5v+DYXw38PrBfEX7QV1beLNaurcrF4Z06d00/Ty6kEzTrteaVc8BNqKwPMgwRrKpSoRt+BEadSq7n4V21zJZ3Ec0MjxTRMHR0O1kYcgg9iPWv6NP+CCv/AAVzj/bp+FA+H/ji+Rfiv4OtV3yysA3iOyXCi6X1mThZR3JVx95gv40f8FXf+CaniD/gmr+0bP4fuPtGpeDdc33nhnWGTi8twRmJz08+LcquB6qwADivCfgf8bPE37OfxZ0Hxt4P1SfR/Enhy6W7srqL+FhwVYdGRlJVlOQysQQQTSrU416enyHTqSpT1+Z/Y7RXzn/wTF/4KKeGf+CkP7N1j4u0prex8Safts/EmjK+ZNLu8c4BOTDJgtG/ORkE7kYD6MrwpRcXys9eMk1dBRRRUjCiiigAooooAKKKKACiiigAooooAKKKKACiiigAooooAKKKKACiiigArmvjF8KdH+OPww1zwnr9rHeaTr1pJaXETqGBVhjIz3HUH1FdLRQB/I9+35+yFrH7EH7UXiXwFqkb+Tp9w0mnzkfLdWrHMbj8OD7g1W/YW/az1r9in9prwz4+0eRx/Zdyq3kAOFurZjiSM/Vc/iBX7lf8HF3/AATt/wCGov2bf+Fh+HbHzvGHgCNppFjUmS8susicdSv3h+NfzsMpRirDBBwQe1e/h6irU9fmeTWg6c9D+x34IfGHRfj98J9B8Y+H7qO80nxBZx3cEiMGwGGSpx3ByD7iuqr8T/8Ag2J/4KKfYNQvfgP4ovv3NwWvvDjzP91uskAz6/eA+tfthXjV6TpzcT0qVTnjcKKKKxNAooooA+ff+Cmv7E2mft4/sm+IvBl1HGNWWI3ej3DD5re7QEoQcdD90+xr+VH4g+BNT+GHjfVfD2s2slnqmjXUlpcwyLho3RiCP0r+zCvwx/4Ob/8AgnX/AMIV41s/jl4Ysdum6462niBIk4huOiTH/fHBPqK9DAVrP2b6nHiqd1zo9A/4Ni/+Civ9u6HefAnxRfZurANe+HHlf78XWSAfT7wHpmv2Or+Ob4C/GrW/2d/i/wCH/Gnh26ktNW8P3kd3C6MV3bTypx2IyCPQ1/WD+xH+1Xov7Z37Nfhnx9osqNHq1qv2qEH5rW4AxJGfo2fwxSx1HllzrZjwtS65X0PWKKKK4DrCiiigArzv43/sj/C/9pW38vx98P8Awh4uZU8tJtT0uGe4hX/YlK+Yn/AWFeiUU1JrVA1fc+N9Q/4N/f2Q9Tummk+D1qrOckReIdWiX8FW6AH4Ct/4d/8ABEb9lX4X6qt5pfwX8M3EydBqs11q0f8A37upZU/Svqmir9tU/mf3mfs4dl9xm+EfBmj+ANAt9J0HSdN0TS7VdsFnYWqW1vCPRUQBVH0FaVFFZmh4p+37+w34T/4KDfs4at8P/FKC3acfadJ1NIw02j3qgiOdM9QMlWXI3IzLkZBH8sX7Uf7M3iz9j/46eIPh740sWsde8P3BicjJhuozzHPExA3RyKQyn0PIByB/YRXxD/wWy/4JQ2P/AAUY+Bbat4ftre3+K/g+3eTQ7kkR/wBqRcs1hKxwNrnJjZjhJD1Cu+e3B4n2b5ZbM5cVQ51zLc/BH/gnJ+374q/4J1ftIab438PtJd6bIRaa7pBk2w6xZFgXjPYOPvI/8LAdQWU/1Mfs8ftAeFv2pfgzoHj3wXqS6p4d8R2wubWXG106h45F52yIwZGXsykV/Hv4i8PX/hHX77StUs7nT9S02d7W7tbiMxzW0qMVdHU8qysCCDyCK+7P+CF3/BWy4/4J9/GT/hE/F15cS/CXxlcqNQUkuNCujhFvkX+7gKsqjlkAIyUVT24zD+0XPHf8zlwtfkfLLY/pQoqHTdSt9Z063vLO4hurS7jWaCeFw8cyMAVZWHBUgggjgg1NXinqBRRRQAUUUUAFFFFABRRRQAUUUUAFFFFABRRRQAUUUUAFFFFABRRRQAUUUUAQ6lp0GsafPa3USTW9zG0UsbjcrqRggj0Ir+Yf/gtx/wAE/Jv2Ff2u9SXTbVo/Bvi131LRpAvyRhjl4fqjHp6EV/T9Xyp/wWC/YJs/29v2Q9Y0WGCP/hKtDRtR0Ocj5lnRSTHnGcOOPyrqwtb2c9dmYYinzx03P5g/hP8AE7Vvgx8SNF8VaFdSWeraDdx3ltKhwVdGB/I9K/q4/wCCeX7ZGk/tz/ss+G/HemyRi6uoBDqVuCN1rdIAJEIycc8j2Ir+TLxBoN54W12802/gktb6wma3nicYaN1JBBHsRX6Ff8G73/BRJv2Uf2ml8CeIL4xeDfH8i258xv3dnedI5Pbd90/UV6WMo88OZbo4sPU5ZWezP6MqKRHEiBlIZWGQR3pa8M9QKKKKACuH/aQ+Auh/tN/BLxF4H8RW8dxpfiCze2cMoJjYj5XGejK2CD7V3FFCbTug30Z/IH+2B+zLrn7IH7RHibwDr0Lx3Wh3bRxSEcXEJOY5B7MuDX3d/wAG3P8AwUS/4Z5+Psnwr8SX3leFfHUgFk0rgR2d9/D16Bxx9cV9gf8AByt/wTr/AOF3fBm3+MHhmxMniTwbH5eqpEmXurL+8QOpjPP0Jr8D9E1q68Oaza6hZTSW15ZSrNDKh2tG6nIIPsRXu05LEUrP+meXJOlU0P7Pgciivjv/AIJG/wDBSnw/+2R+x/omra7rWmaf4r0NF0zWIrm5SJnlReJRuIyHUZ+ua+oP+FxeEv8AoZ/D/wD4MIv/AIr2NeLKnKL5WelGSaujpKK5k/GjwevXxR4eH/cQi/8Aiqafjb4NX/mavDv/AIMYv/iqmzKudRRXKn45eC1znxZ4b46/8TKHj/x6mt8d/BK5z4u8N8df+JlDx/49RysLnWUVyJ+PvgZTz4w8Mj/uJw8f+PUjftA+BFPPjLwuPrqcP/xVHKwujr6K40/tD+Ah/wAzp4W/8GkP/wAVV7w78Y/CXi6++y6X4m0HUbk8CK2v4pHP4Bs0WYXR0lFFFID8gf8Ag4x/4JAf8LC0jUP2gvhrpf8AxPNNg83xlplsvOoQIP8Aj/RR/wAtI1GJQPvIofGVct+GvSv7RpI1mjZWVWVhggjIIr+dv/gvz/wSIf8AYt+J8nxO8Babt+Fni67PnWtvH8nhq+fLGDA+7BJyYz0U5TjCFvVwOJv+7l8jzsVh7e/H5nvX/BuP/wAFfDZT6b+zx8StU/cSHyvBOqXUv+rY/wDMNdj2P/LHPQ5j5zGo/ayv4u7K9m028huLeWSC4t3EkckbFWjYHIYEcgg85r+jz/gg7/wVwi/by+Ef/CD+Nb6Ffix4NtVE7uwVvEVmuFW7Ud5V4WUDuVccOQsY7DW/eR+ZeFxF/cl8j9CKKKK807gooooAKKKKACiiigAooooAKKKKACiiigAooooAKKKKACiiigAooooAKCMiiigD+f3/AIOUP+CdZ+BPxvh+LnhqxMfhnxrIV1JYkOy0vu5PYBxz9Qa/L+wvptLvYbm3keG4t3EkciHayMDkEH1Ff15ftlfsvaH+2L+zn4l8A69CklvrVqyQSlQWtpwMxyL6ENg1/J3+0P8AAzW/2bPjR4i8E+Ibd7bVPD949rKGH3wD8rj2YYI+te1ga3PDle6PNxVPllzLqf0f/wDBDb/goNF+3J+yNYQ6pdLJ408Gomm6sjNl5goxHN77lHJ9Qa+1a/lY/wCCR/7eF5+wR+15oniKSaT/AIRnVnXT9cgB+WS3c4349UPzD6Gv6mfDHiSy8Y+HbHVtNuI7rT9RgS4t5o23LIjAFSCPUGvPxlH2c9NmdWHqc0ddy9RRRXKdAUUUUAUfEvh2z8X+H73S9Rt47qx1CB7e4hkGVkRgQQR7g1/LT/wV1/YMvv2B/wBrrWtBjgk/4RjWHbUdDnI+V7d2J2Z9UPy/gK/qkr5K/wCCvX/BM+y/4KQ/s+LpVnJa6f4y0GQ3Oi3sowu4j5onOCdrfocV1YSv7OeuzOfEUueOm5/LpZatdaaG+z3Nxb7vveXIVz+VWP8AhKtU/wCglff9/wBv8a+wPEP/AAQA/aj0LVZrZPh7JfJGxAmt72Fo3xnkfN7fyqi3/BBn9qVVz/wrG+P0u4f/AIqvZ9tT7o8/2c+zPkv/AISjUj/zEL7/AL/t/jR/wkuo/wDP/e/9/wBv8a+sj/wQf/akH/NL9Q/8CYf/AIqmt/wQh/akX/ml+of+BMP/AMVR7an3Qezn2Z8m/wDCRagf+X68/wC/zf40HxBfn/l+vP8Av83+NfV0n/BCn9qSMf8AJLdUb6XEP/xVNP8AwQv/AGogP+SWat/3+i/+Ko9tT7oXs59mfKP9vXxP/H5df9/W/wAaDrl6T/x+XX/f1v8AGvqtv+CGv7US/wDNK9YP0li/+Kprf8EOf2olP/JKda/CWL/4qj21Pug9nPsz5V/tm8P/AC9XP/f1v8a2fAPxY8SfC/xVaa1oOtalpep2MiyxTwTsrKwOR35/Gvo5v+CH/wC1CP8AmlOufg8X/wAVXBftC/8ABNj42fsr+B18SePPAeraDojTLB9rlCtGrt0B2k4z70/aU3omhcklrY/oj/4I6f8ABQS3/b+/ZL03V7y4iPjDQAun67CD83mqOJcejjn65r6yr+XT/gi7+39cfsH/ALXulXl7cuvg/wATOmm63ET8ioxws2M4yjHOfTNf1B6Rq1vr2lW19ZzR3FreRLNDKhysiMMgg+4NeLi6Ps56bM9PD1OeOu5YrnPi78JfDvx4+GWueDvFml2+teHfEVo9lf2c4ys0bDseqsDhlYYKsAQQQDXR0Vy7ao3P5UP+CqH/AATe8Rf8E2f2kbrwzefaNQ8JavvvPDOssmFv7XPKMQMCaLIV1HqrAbXWvFPgP8c/FH7NXxd0Hxz4N1SbR/Enhy6W7s7mPsRwUYdGRlJVlPDKxB4Nf1Vf8FB/2EvCn/BQz9m/VfAPiZRbXD/6Vo+qpGGm0e9VSI5l9V5KumRuRmGQcMP5Y/2mv2bvFn7JHxv174f+NNPbTtf8P3BhlXkx3CHlJo2x80bqQyt3BHQ5Fe5hcQqseWW55OIounK8dj+ob/gmf/wUN8L/APBR79m+x8Y6K0Njr1kFs/EWj78yaVebckDPJiflo37rwfmVgPoav5OP+CbP/BQXxT/wTl/aR0/xpoTSXuj3G208QaOZNsWr2RbLJ6LIv3kf+Fh3Usp/qX+APx48L/tOfB3QPHfg3Uo9U8OeJLVbq0nXhgDw0bj+GRGDIynlWUjtXnYrD+zldbM7sPW9otdzsKKKK5DoCiiigAooooAKKKKACiiigAooooAKKKKACiiigAooooAKKKKACiiigAr8gP8Ag5x/4J2f8Jj4Qs/jp4ZsS2oaMq2fiFIUyZYP4JyAP4TwT6EV+v8AWL8RPAOl/FLwNq3h3WrWO80rWrWS0uYZFyro6kH+da0ajpzUkZ1KanHlZ/Gjmv32/wCDab/gop/wun4OXHwd8TX3meIvB0fmaS0r5e6sv7o9TGePoRX5Ef8ABS79ijVP2D/2sPEXgu8jlOl+cbvSLllwtzauSUIPqOh9xXF/shftM65+yH+0L4a8faBM8d5od2kkkYYhbiHOJI29Qy5Fe3WpqtT0+R5tObpz1P6/aK4X9mr4+6H+098D/Dnjrw9cLcaX4gs0uUwcmNiPmQ+6tkH6V3VfPtNOzPW3CiiigAooooAKKKKACiiigAooooAKKKKACvPf2p/2dtD/AGrfgJ4l8B+IIFm0/wAQWbwbiAWhkx8ki+hVsGvQqKabTugeujP4+f2p/wBnbXP2UPj74k8CeIIXh1Dw/ePCGIwJo85SRfZlwa/dP/g2/wD+CiQ/aM/Z8f4X+Ir7zPFngOMLaNK/7y8seikdyU+6fbFch/wcyf8ABOz/AIWr8LrX41eGbFpNc8KoLfWkhQlrizzxIcd0Pf0Nfjr+w3+1jrn7FX7S/hrx9os0itpdyovIAxC3VuxxJGw75XP44r2dMRR8/wBTzdaNTyP67KK5P4F/GXRf2g/hH4f8ZeHrpLvSfEFnHdwOp6BhkqfcHIPuK6yvFemjPSCvhj/gt9/wSds/+CiPwPOu+GbW3g+LHg22d9HnyI/7XgGWawkbp8xyY2bhHPVVdzX3PRV06jhLmiTKKkuVn8YOt6JeeGtZu9O1C1uLG/sZnt7m3njMcsEiEqyMp5VgQQQeQRX3t/wQn/4K3z/sB/F//hDfGN5NJ8J/GV0ovNzFhoF2cKt6i/3CAqygclQrDJQK32B/wcaf8EgR4v0zUP2hPhrpQ/tSxiMvjTTLVP8Aj7hUf8hFFH8aAYlA+8oD9Vct+H9e7GUK9PU8iUZUZ6H9oWn6hb6tYQ3VrNDdWt1GssM0Th45UYZVlYcEEEEEcEGpq/F3/g3I/wCCvwKab+zv8StUUY/deCdUupOv/UMdz+Jhz7xg/wCrWv01/bM/4KI/CP8AYJ8KrqPxI8WWumXVxGZLLSLcfadU1DGf9VAvzbSRje22MHgsK8Wph5wnyHqU60ZR5j22ivw7/aT/AODszxNqWoXFr8Jfhro+k2Ksyx6j4ome7uJV7N9ngZEjb2Mkgr5c1z/g4x/a61W/kmt/iVY6ZG7EiC28MaW0cfsDJbu35sTW8cBVe9kZSxlNH9M9FfzR+EP+DkH9rTw3qsdxe+PNH8QQxnLWt/4a0+OKT2Jt4Yn/ACYV9efsu/8AB2Wt1f29j8ZPhrHbQyHEur+E5mYR+hNpOxJHqRPn0U9KUsDVW2oRxlN+R+0FFeb/ALMn7XXw3/bG8Ar4k+G3izS/FGl8LN9ncrcWbHok8LASRNweHUZHIyOa9IrkaadmdSd9UFFFFIAooooAKKKKACiiigAooooAKKKKACiiigAooooA/P8A/wCDgb/gngv7Yf7K83irQ7MSeNfAMb3ttsUeZd2wGZYumTwNwHqK/m5liaCVkdSrISrA9QRX9odzbx3dvJDKqyRyKUdSMhgeCK/mm/4L0/8ABPKT9ir9rC61rRrNo/BPjp31DT2VT5dtMTmWHPTgnI9jXqZfW/5dv5HDiqf20fQ//Bsn/wAFFP8AhAPHt58D/E98qaV4gc3WgPM4Cw3P8cIz/fHIHqPev3Vr+M3wH431L4beM9L1/R7qWy1TR7lLu2njYq0ciMCCD+Ff1Vf8EwP23dN/bz/ZL8P+MLeSMaxFELLWbcH5re6QANx6N94fWox9Gz9oupWFqXXIz6IooorzjsCiiigAooooAKKKKACiiigAooooAKKKKAM3xj4S0/x74V1DRdVto7zTdUt3tbmGRQyyRuCrAg+xr+V3/gqv+wxqH7BP7XOveFWhk/sC+ka/0S4I+WW2ckgZ9V+6fpX9WlfDf/BeH/gntH+21+yVeano9osnjXwOj6hprKvz3EQGZYemTlRkD1FdeDreznZ7M58RT5o3W6Piv/g2L/4KLf2LrN58CPFF9i1vS174ceVxhJOskAye/wB4D1zX7cV/Gz8OPH+tfBH4m6X4h0iebTtc8O3qXELqSrxSRtnB/LBFf1Y/8E5f2zdJ/bq/ZU8OeONPkj+3TQi31W3U5a1u0AEin6nkexrXHUeWXOtmZ4WpdcjPdaKKK887Bs0K3ELRyKskcgKsrDKsD1BFfzpf8F8v+CRUn7EfxUk+JHgXT2/4VT4wuyTbwx/L4avXyxtjjgQvy0R4A5T+FS39F9fJn/BbT9pLwb+zf/wTt8dTeMdKsPES+LLVvD+laPdgmPUL2ZWMZOOQIthnLAgjyRtYMVNdOFqyhUXL1MMRTjKGp/Lhp+oXGk38N1azTW11ayLLDNE5SSJ1OVZSOQQQCCOla3xI+JviL4xeM77xF4r1zVfEevak/mXWoajcvc3E5xgbnYknAAAHQAADisOvqP8A4JW/8EvPFX/BTb43S6Lp9xJoPg/QUW58Qa+1u0kdohOFgi/ha4k52qSBtV2PC4PuykormkeRGLk+VHzRoHh7UPFesW+naXY3mpahduI4La1haaaZj0VUUEsT6AV9LfC//git+1N8X7bztJ+C3i61jIyDrIh0XI9hePETX9HX7Gf/AATy+Ev7Bfg2PSfhz4Us9PumiEd5rNyouNW1I8ZM1wRuIJGdi7YwSdqLXtlebUzF39xfed0MCre8z+UX4u/8Eh/2mPgfDJL4g+DHjb7PApeWfTLQatDEo6s0loZVUD1JxXzrc20lncPDNHJFLGxV0dSrIR1BB6Gv7RK+Yf2//wDgkh8Hv+Chfhq7bxNoNvovjJoiLPxVpcKw6lA4A2+aQALiMYA2S5wCdpQncCnmOtpr7gqYHT3GfzJ/s2/tQeO/2RfijZeMfh74j1Dw5rlkQPMt3/d3MeQTFNGcpLGcDKOCDgcZANf0hf8ABIv/AIK6+Gf+CmHw0ktbqO18P/E3w/CG1rRFf93OmQv2u2ySWhJIBUktGxAOQVZv58P2/v2AvHX/AATt+Olz4L8Z26zQzA3Gkavbqfses22cCWMnow6Mh5RuDkEE8Z+zB+0j4o/ZH+O3hz4heD7w2eueG7tbiLJPl3KdJIJACN0ciFkYdwx6HBrqrUI1o3W/RnPRrSpSs9j+wqivO/2Tf2lvD/7YP7OnhL4k+GZCdJ8VWK3SxMcvaSglJrd/9uKVXjJHBKEjIINeiV4TTTsz2E7q6CiiikAUUUUAFFFFABRRRQAUUUUAFFFFABRRRQAV84f8FTf2GtN/b2/ZK17wnLDH/btpG19olwQN0F0gJUZ9G+6frX0fRVRk4vmQpRTVmfxl+NfB2ofD3xdqWh6tbSWepaTcva3MLjDRyISpB/EV9wf8ECP+ChjfsZftXW/h/W7xovBXjx0sb0O37u1nJxFNycDk4J9DXu3/AAc0f8E6/wDhWvxItfjb4ZsdujeJXFtrqRJ8sF3j5ZTgcBxwT6j3r8l4J3tpkkjZkkjYMrA4KkdDXvRca9L1PJknTmf2iQTpcwJJGyvHIoZWByGB6GnV+V//AASo/wCC+Hww/wCGSdF0P4xeLotB8YeGVGnM9xHJIb+FRiOXKrjOOD3yPevpRf8Agu1+y2w/5Kjpv/gPN/8AE/5zXiyw9RO1menGtBq9z68or5DP/Bdj9lsf81S0w/S3m/8Aif8AOad/w/W/ZbP/ADVLS/8AwHm/+J/zmp9jU7P7h+0h3PrqivkU/wDBdT9lwD/kqWl/9+Jv/if85p3/AA/R/Zdx/wAlS0n/AL8S/wDxP+c0exqdn9we0h3Priivkcf8Fz/2XSf+Sp6T/wB+Zf8A4n/Oad/w/N/Zd/6KppP/AH5l/wDif85o9jU7P7g9pDufW1FfJQ/4Ll/sun/mqmj/APfqX/4mlP8AwXK/Zd/6Kpo//fqX/wCJo9jU7P7g9pDufWlFfJn/AA/H/Zdz/wAlW0b/AL9S/wDxNKP+C4v7Lrf81W0X/v1L/wDE0exn2Ye0j3PrKivk0f8ABcP9l0n/AJKtov8A37l/+Jp3/D8D9l7/AKKton/fuX/4mj2M+zD2kO59YU2WNZo2R1DKwwwI4Ir5RH/Bb/8AZeLY/wCFr6H/AN+5f/iaD/wW+/ZfH/NV9D/74l/+Jo9jPsw9pDufjX/wcGf8E8X/AGQv2p5vF2hWTR+C/H8j3kBjTEdpdHmWL2yfmHsasf8ABvV/wURb9kj9qCPwXr98YfBXj6RLWTzGPl2d30il64Gc7T9RX6Jf8FJf25v2S/28v2UfEHgm7+KXh3+1JIjc6RcNHJutrtAShBK8A9D7Gv563d9E1hmt7gNJaTZjmjPBKnhlP4Zr16N6tLkqI86paFTmgf2eRyLKispDKwyCO4p1fEv/AAQm/b6/4bc/Y8soNWuPN8XeCQml6puI3TqF/dS/8CUc+4NfbVeNODjJxZ6UZKSugr+fL/g6U/aim+KP7bGj/Da1uGbSfhnpKGeIfd+33irPI3viD7MBnod3qa/oNr+TX/gqr4puvGH/AAUp+Ot3eStNND441WxVmOcR291JBGv4JGo/Cu3L43qX7HLjZWhY8l+Dvwq1j45/Fjw34L8PwLca54q1O30qxjY7VaaaRY03HsoLAk9gCa/rT/Yy/ZO8M/sSfs3+Gfhv4VgjWx0G2C3F15e2XU7puZrqTr88j5bGTtG1R8qgD8BP+Dan4RRfE/8A4Kk6DqE0ayxeCNE1DXijLuBbYtoh+qvdqwPYqK/pMq8wqPmUCcDBWcwooorzTuCiiigD5h/4K3/sA6b/AMFC/wBjzXvDK2lu3jLRon1XwreFQJIL6NSRDuyMRzgeU4PA3K+CUXH8rFzbyWdxJDKjRyxMUdGGGUjggj1Ff2i1/KD/AMFb/hRF8Ff+ClXxn0G3iS3tV8TXGoQRIu1YorvF2iKOyhZwB7CvUy6o9YP1PPx0FpM/SH/g00/ainu7T4k/Bu+uWkitVj8V6REf+WYJS3uwD6ZNqQPUue5r9na/mj/4NvfF134b/wCCtHgOzt5Wjh8Qafq1hdKP+Wka6fPcAH/tpBGfwFf0uVz46PLVv3NsHK9P0CiiiuM6gooooAKKKKACiiigAooooAKKKKACiiigAooooA4H9p/9nvQ/2p/gT4k8C+IbdJ9O8QWb25LDJhcj5HHurYP4V/Lv+2L/AME0fi1+xv8AFW+8P+IPB+uTWImf+z9StbVri1v4QfldXTIzjGVPIr+saobywt9QQLcQwzqOgkQMB+ddOHxUqW2xjWoqofxxn4MeMB/zK/iH/wAF8v8A8TQPgt4wYf8AIq+If/BfL/8AE1/Yp/wjGm/9A+x/78L/AIUf8Izpv/QPsf8Avwv+Fdf9pP8AlOf6n5n8dn/ClPGH/Qq+Iv8AwXy//E0f8KU8Yj/mVfEX/gul/wDia/sT/wCEa03/AKB9j/34X/Cj/hGtNP8AzD7H/vwv+FH9pP8AlD6n5n8dv/Ck/GWf+RV8Rf8Agul/+Jo/4Un4yz/yKviL/wAF0v8A8TX9if8Awjenf9A+y/78L/hR/wAI3p2f+QfZf9+F/wAKP7Sf8ofU/M/jsHwR8ZH/AJlTxF/4Lpf/AIml/wCFH+NCP+RT8R/+C6X/AOJr+xL/AIRvTv8AoH2X/fhf8KX/AIRzT/8Anws/+/C/4Uv7Sf8AKH1PzP47f+FHeNP+hT8Sf+C6X/4mj/hRvjT/AKFPxJ/4Lpv/AImv7Ev+Ed0//nxs/wDvyv8AhR/wjun/APPjZ/8Aflf8KP7Sf8ofU/M/jtHwN8aH/mU/En/gum/+Jo/4UZ40/wChS8Sf+C6b/wCJr+xL/hHtP/58bP8A78r/AIUHw9p5/wCXGz/78r/hR/aT/lD6n5n8dv8Awovxr/0KXiT/AMFs3/xNKPgT42I/5FHxJ/4LZv8A4mv7Ef8AhHtPP/LjZ/8Aflf8KP7AsP8Anxs/+/K/4Uf2k/5Q+p+Z/Hf/AMKH8bf9Cj4l/wDBbN/8TQfgN43H/MoeJv8AwWzf/E1/Yj/YNif+XK0/78r/AIUf2BYn/lytP+/K/wCFH9pP+UPqfmfx3j4CeOCf+RP8Tf8Agtm/+JqWx/Z28fandJDb+C/FE00h2qq6ZMST/wB81/YZ/YVj/wA+dr/35X/ChNFs4m3LaWqt6iJR/Sj+0n/KH1PzPzb/AODb/wDYB8ZfsjfBjxN4o8cafcaLqXjd4Wt9On+WaCGPdhnX+EnOcHmv0uoorgqVHOTkzspxUY8qCv5Lf+CoWizaD/wUg+PENxG0Uknj3WrkKwwSkt7LKh+hVwR7Gv60q/nV/wCDnb9mm4+EH/BQhfG0NvIuj/FDSYL9JQmI/tlsi208Y9wqQSH3nrsy+VqjXdHLjY3hczf+DYv4mw+Av+CoVlpkzbW8Z+GdS0aL/fUR3v8AKzP41/R5X8d/7NHx41b9mD9oHwd8QtDw2p+D9Wt9TiiZiqXIjcF4WI52SLuRsfwsa/rf/Z++Ovh39pr4K+GvH3hO8W+8P+KrFL60kyNyBuGjcAkLJG4ZHXPyujDtTzCm1JTJwU7xcTsaKKK847gooooAK/lS/wCCzHxIj+Kv/BUX416pCwaO38RyaUCOh+xIlmcfjBX9HX/BRz9tPSP2Bf2RfFXxE1KS3bULOA2mhWcpH/Ex1KVWFvCBkFl3Au+ORHHIe1fyaa3rV34k1m81G/uJbu+v5nubieRtzzSOxZmY9ySSSfevUy6m7ufyPPx09on2x/wbmaHcat/wVy+G9xDGzx6Xa6vczkD7iHS7qIE/8ClUfjX9M1fiH/waZ/szXF947+JXxfvLd1s9Ps4/CumSMvySzSslxc4P95Ejtx9J6/byufHyvVt2NsHG1MKKKK4zqCiiigAooooAKKKKACiiigAooooAKKKKACiiigAooooAKKKKACiiigAooooAKKKKACiiigAooooAKKKKACiiigAooooAKKKKACvkX/gtN/wT4/4eE/sZano2k28cnjrwq51rwy5ADTTopElruPRZ48r1A3iJjwtfXVFVCTjJSRMoqS5Wfxe6lptxo2oz2d3BNa3VrI0U0MqFJInU4ZWB5BBBBB6V90f8EZ/+Cz2sf8E4PFknhfxNDeeIPhNrtz515ZQndc6NOcA3VsCQDkAb4yQGABBDDn7x/wCC6f8AwQjuPj9qWqfGT4M6ajeMpA1z4i8OQKF/twgZa5tx0+0n+NP+WvUfPkP+FGqaXdaHqVxZ3tvPZ3lrI0U0EyGOSF1OGVlPIIIwQeRXvQnCvDU8iUZ0Zn9hvwG/aH8EftP/AA6s/Fnw/wDE2k+KvD96BsurGbf5bYDGORDh4pACMxuFdc8gV2dfx2/Az9pDx9+zL4s/tz4f+MPEPg/VGAWSfS717f7QoOQkiqdsiZ52uCp9K+z/AIb/APBzR+1J4FtfK1LV/BvjAgYD6voEcbD/AMBWgz+Oa4KmXyT9xnXDHRfxI/pDryn9rn9tn4a/sOfDWbxR8R/E1jolqEc2dnvEl/qrrj91bQA75GyVBIG1dwLMq5I/n7+Kv/ByB+1T8S7eaGz8XaH4Qt51KMmh6JAjAH+7JMJZFPurAj1r4x+JvxX8UfGnxdceIPGHiLW/FGuXePOv9VvZLu4kA6AvIS2B0AzgDpTp5fK/vsJ45W9xH0N/wVT/AOCo3ir/AIKafGtNWvopNF8F6CZIfDuhB9wtI2I3TSkcPPJtXc3QABRwMn59+EPwm8QfHb4n6F4O8LadNq3iHxJex2Fhaxfellc4GT0VR1LHhQCSQATVT4ffDzXfix4z07w74Z0nUNd13Vplt7OwsoGmnuZD0VVUEn+g5r+iL/giL/wRXtP+Cf8A4cXx548jtNS+LmtWxj2oVlg8NQOPmgiYZDTMOJJBxj5F+Xcz9tWrChCy+SOWnTlVnd/M+qf2Af2P9J/YT/ZN8I/DXSmjuJNFtfM1K8Rdp1C+kO+4mPfBckKDyEVF/hr2SiivBlJt3Z68UkrIKKKKQwooooAKKKKACiiigAooooAKKKKACiiigAooooAKKKKACiiigAooooAKKKKACiiigAooooAKKKKACiiigAooooAKKKKACiiigAooooAK+Sf+Cgn/AARd+DH/AAUIW41TW9Lk8L+OJEwnibRVWK6kIGF+0RkbLhRwPnG/AAV1FfW1FVGcou8WTKKkrSP52P2lv+DYT9oL4RXtxN4Hl8O/FDSFYmI2V2mnX+wd3guGVAf9mOWQ18sa9/wS1/aS8OahJa3HwJ+LEkkZ2lrXwveXUZ+jxRsp+oJr+s6iu2OYVEtUmcssFB7H8nvg3/gk1+0x461WOzsvgZ8TbeaU4DajoM+nRD6yXCog/EivsD9lv/g1i+MfxJvra7+J/iDw/wDDfSCczWsEo1bVCPQLEfIXPTd5xI/unpX9AVFKWYVHtoEcHBb6nz3+wv8A8Ev/AIP/APBPTw8YPAHhxTrlxF5V74h1JhdatejqVaXAEaHA/dxKiHAJUnmvoSiiuOUnJ3kdcYpKyCiiipGFFFFABRRRQAUUUUAFFFFABRRRQAUUUUAFFFFABRRRQAUUUUAFFFFABRRRQAUUUUAFFFFABRRRQAUUUUAFFFFABRRRQAUUUUAFFFFABRRRQAUUUUAFFFFABRRRQAUUUUAFFFFABRRRQAUUUUAf/9k=;strokeWidth=3;sketch=1;imageBackground=none;imageBorder=default;" vertex="1" parent="1">
          <mxGeometry x="305" y="580" width="80" height="80" as="geometry" />
        </mxCell>
      </root>
    </mxGraphModel>
  </diagram>
</mxfile>
